<svg xmlns="http://www.w3.org/2000/svg" viewBox="0 0 1131.68 404.21"><defs><style>.cls-1{fill:#fff;}</style></defs><g id="Layer_2" data-name="Layer 2"><g id="Layer_1-2" data-name="Layer 1"><path class="cls-1" d="M886.28,309.58a14.38,14.38,0,0,1-14.38-14.39V14.79a14.39,14.39,0,0,1,28.77,0v280.4A14.39,14.39,0,0,1,886.28,309.58Z"/><path class="cls-1" d="M318.56,311.58A105.77,105.77,0,1,1,424.33,205.81,105.89,105.89,0,0,1,318.56,311.58Zm0-182.77a77,77,0,1,0,77,77A77.09,77.09,0,0,0,318.56,128.81Z"/><path class="cls-1" d="M1131.5,188.71a105.78,105.78,0,1,0-104.39,122.87,126.75,126.75,0,0,0,95.35-43.71A14.38,14.38,0,1,0,1100.79,249c-18.51,21.2-46.06,33.86-73.68,33.86a77.1,77.1,0,0,1-76.91-73.15H1117a14.38,14.38,0,0,0,14.38-14.39c0-.39,0-.79-.06-1.18A14.3,14.3,0,0,0,1131.5,188.71Zm-104.39-59.9A76.62,76.62,0,0,1,1100,180.9H954.26A77.12,77.12,0,0,1,1027.11,128.81Z"/><path class="cls-1" d="M539.44,100.56c-25.06,0-48,10-65.39,26.47V113.85a14.38,14.38,0,1,0-28.76,0v60.28c0,.12-.08.24-.11.35V237.1a3.58,3.58,0,0,0,.11.35V389.83a14.38,14.38,0,0,0,28.76,0V284.74a95,95,0,0,0,65.39,26.32c54.44,0,98.73-47.21,98.73-105.25S593.88,100.56,539.44,100.56Zm0,182.78c-26.41,0-50.49-15.87-62.84-41.4h0a82.21,82.21,0,0,1-8.17-36.12c0-42.75,31.86-77.52,71-77.52s71,34.77,71,77.52S578.6,283.34,539.44,283.34Z"/><path class="cls-1" d="M193,173.75c0-.12-.08-.24-.11-.35v-159a14.39,14.39,0,0,0-28.77,0V126.11A95,95,0,0,0,98.73,99.79C44.29,99.79,0,147,0,205S44.29,310.29,98.73,310.29c25.06,0,48-10,65.39-26.47V297a14.39,14.39,0,0,0,28.77,0V236.72a3.58,3.58,0,0,1,.11-.35ZM98.73,282.56c-39.15,0-71-34.77-71-77.52s31.86-77.53,71-77.53c26.41,0,50.49,15.87,62.84,41.4h0A82.2,82.2,0,0,1,169.74,205C169.74,247.79,137.89,282.56,98.73,282.56Z"/><path class="cls-1" d="M752.51,100.56c-25.06,0-48,10-65.39,26.47V113.85a14.38,14.38,0,0,0-28.76,0v60.28c0,.12-.08.24-.11.35V237.1a3.58,3.58,0,0,0,.11.35V389.83a14.38,14.38,0,0,0,28.76,0V284.74a95,95,0,0,0,65.39,26.32c54.44,0,98.74-47.21,98.74-105.25S807,100.56,752.51,100.56Zm0,182.78c-26.41,0-50.49-15.87-62.84-41.4h0a82.21,82.21,0,0,1-8.17-36.12c0-42.75,31.86-77.52,71-77.52s71,34.77,71,77.52S791.67,283.34,752.51,283.34Z"/></g></g></svg>